<svg width="200" height="200" viewBox="0 0 200 200" fill="none" xmlns="http://www.w3.org/2000/svg">
<path fill-rule="evenodd" clip-rule="evenodd" d="M153.994 152.071L186.759 51.017C189.33 43.094 184.994 34.5671 177.087 31.9949C169.181 29.4227 160.672 33.7645 158.105 41.6875L125.339 142.737C122.769 150.66 127.105 159.187 135.011 161.759C142.918 164.335 151.427 159.994 153.994 152.071Z" fill="url(#paint0_linear_48_25)"/>
<path fill-rule="evenodd" clip-rule="evenodd" d="M153.994 152.071L186.759 51.017C189.33 43.094 184.994 34.5671 177.087 31.9949C169.181 29.4227 160.672 33.7645 158.105 41.6875L125.339 142.737C122.769 150.66 127.105 159.187 135.011 161.759C142.918 164.335 151.427 159.994 153.994 152.071Z" fill="url(#paint1_linear_48_25)"/>
<path fill-rule="evenodd" clip-rule="evenodd" d="M153.994 152.071L186.759 51.017C189.33 43.094 184.994 34.5671 177.087 31.9949C169.181 29.4227 160.672 33.7645 158.105 41.6875L125.339 142.737C122.769 150.66 127.105 159.187 135.011 161.759C142.918 164.335 151.427 159.994 153.994 152.071Z" fill="url(#paint2_linear_48_25)" fill-opacity="0.8"/>
<path fill-rule="evenodd" clip-rule="evenodd" d="M153.994 152.071L186.759 51.017C189.33 43.094 184.994 34.5671 177.087 31.9949C169.181 29.4227 160.672 33.7645 158.105 41.6875L125.339 142.737C122.769 150.66 127.105 159.187 135.011 161.759C142.918 164.335 151.427 159.994 153.994 152.071Z" fill="url(#paint3_radial_48_25)"/>
<path fill-rule="evenodd" clip-rule="evenodd" d="M153.994 152.071L186.759 51.017C189.33 43.094 184.994 34.5671 177.087 31.9949C169.181 29.4227 160.672 33.7645 158.105 41.6875L125.339 142.737C122.769 150.66 127.105 159.187 135.011 161.759C142.918 164.335 151.427 159.994 153.994 152.071Z" fill="url(#paint4_radial_48_25)"/>
<path fill-rule="evenodd" clip-rule="evenodd" d="M153.994 152.071L186.759 51.017C189.33 43.094 184.994 34.5671 177.087 31.9949C169.181 29.4227 160.672 33.7645 158.105 41.6875L125.339 142.737C122.769 150.66 127.105 159.187 135.011 161.759C142.918 164.335 151.427 159.994 153.994 152.071Z" fill="url(#paint5_radial_48_25)"/>
<path fill-rule="evenodd" clip-rule="evenodd" d="M99.9958 92.1757C103.714 92.1757 106.457 94.3579 108.794 97.0943C111.392 100.141 113.467 103.917 115.229 107.926C123.151 125.924 124.634 148.439 124.634 148.439C125.202 156.752 132.399 163.036 140.695 162.466C148.99 161.896 155.26 154.681 154.692 146.371C154.692 146.371 152.702 118.249 142.797 95.7414C134.302 76.4407 119.92 61.9819 99.9994 61.9819C80.0794 61.9819 65.6968 76.4407 57.203 95.7414C47.2943 118.249 45.3073 146.371 45.3073 146.371C44.739 154.684 51.0091 161.896 59.3045 162.466C67.5999 163.036 74.7973 156.752 75.3651 148.439C75.3651 148.439 76.8487 125.928 84.7701 107.926C86.5323 103.921 88.6073 100.141 91.2044 97.0943C93.5387 94.3579 96.2808 92.1757 99.9958 92.1757Z" fill="#E63CFE"/>
<path fill-rule="evenodd" clip-rule="evenodd" d="M99.9958 92.1757C103.714 92.1757 106.457 94.3579 108.794 97.0943C111.392 100.141 113.467 103.917 115.229 107.926C123.151 125.924 124.634 148.439 124.634 148.439C125.202 156.752 132.399 163.036 140.695 162.466C148.99 161.896 155.26 154.681 154.692 146.371C154.692 146.371 152.702 118.249 142.797 95.7414C134.302 76.4407 119.92 61.9819 99.9994 61.9819C80.0794 61.9819 65.6968 76.4407 57.203 95.7414C47.2943 118.249 45.3073 146.371 45.3073 146.371C44.739 154.684 51.0091 161.896 59.3045 162.466C67.5999 163.036 74.7973 156.752 75.3651 148.439C75.3651 148.439 76.8487 125.928 84.7701 107.926C86.5323 103.921 88.6073 100.141 91.2044 97.0943C93.5387 94.3579 96.2808 92.1757 99.9958 92.1757Z" fill="url(#paint6_radial_48_25)"/>
<path fill-rule="evenodd" clip-rule="evenodd" d="M99.9958 92.1757C103.714 92.1757 106.457 94.3579 108.794 97.0943C111.392 100.141 113.467 103.917 115.229 107.926C123.151 125.924 124.634 148.439 124.634 148.439C125.202 156.752 132.399 163.036 140.695 162.466C148.99 161.896 155.26 154.681 154.692 146.371C154.692 146.371 152.702 118.249 142.797 95.7414C134.302 76.4407 119.92 61.9819 99.9994 61.9819C80.0794 61.9819 65.6968 76.4407 57.203 95.7414C47.2943 118.249 45.3073 146.371 45.3073 146.371C44.739 154.684 51.0091 161.896 59.3045 162.466C67.5999 163.036 74.7973 156.752 75.3651 148.439C75.3651 148.439 76.8487 125.928 84.7701 107.926C86.5323 103.921 88.6073 100.141 91.2044 97.0943C93.5387 94.3579 96.2808 92.1757 99.9958 92.1757Z" fill="url(#paint7_radial_48_25)"/>
<path fill-rule="evenodd" clip-rule="evenodd" d="M99.9958 92.1757C103.714 92.1757 106.457 94.3579 108.794 97.0943C111.392 100.141 113.467 103.917 115.229 107.926C123.151 125.924 124.634 148.439 124.634 148.439C125.202 156.752 132.399 163.036 140.695 162.466C148.99 161.896 155.26 154.681 154.692 146.371C154.692 146.371 152.702 118.249 142.797 95.7414C134.302 76.4407 119.92 61.9819 99.9994 61.9819C80.0794 61.9819 65.6968 76.4407 57.203 95.7414C47.2943 118.249 45.3073 146.371 45.3073 146.371C44.739 154.684 51.0091 161.896 59.3045 162.466C67.5999 163.036 74.7973 156.752 75.3651 148.439C75.3651 148.439 76.8487 125.928 84.7701 107.926C86.5323 103.921 88.6073 100.141 91.2044 97.0943C93.5387 94.3579 96.2808 92.1757 99.9958 92.1757Z" fill="url(#paint8_radial_48_25)"/>
<path fill-rule="evenodd" clip-rule="evenodd" d="M99.9958 92.1757C103.714 92.1757 106.457 94.3579 108.794 97.0943C111.392 100.141 113.467 103.917 115.229 107.926C123.151 125.924 124.634 148.439 124.634 148.439C125.202 156.752 132.399 163.036 140.695 162.466C148.99 161.896 155.26 154.681 154.692 146.371C154.692 146.371 152.702 118.249 142.797 95.7414C134.302 76.4407 119.92 61.9819 99.9994 61.9819C80.0794 61.9819 65.6968 76.4407 57.203 95.7414C47.2943 118.249 45.3073 146.371 45.3073 146.371C44.739 154.684 51.0091 161.896 59.3045 162.466C67.5999 163.036 74.7973 156.752 75.3651 148.439C75.3651 148.439 76.8487 125.928 84.7701 107.926C86.5323 103.921 88.6073 100.141 91.2044 97.0943C93.5387 94.3579 96.2808 92.1757 99.9958 92.1757Z" fill="url(#paint9_radial_48_25)"/>
<path fill-rule="evenodd" clip-rule="evenodd" d="M99.9958 92.1757C103.714 92.1757 106.457 94.3579 108.794 97.0943C111.392 100.141 113.467 103.917 115.229 107.926C123.151 125.924 124.634 148.439 124.634 148.439C125.202 156.752 132.399 163.036 140.695 162.466C148.99 161.896 155.26 154.681 154.692 146.371C154.692 146.371 152.702 118.249 142.797 95.7414C134.302 76.4407 119.92 61.9819 99.9994 61.9819C80.0794 61.9819 65.6968 76.4407 57.203 95.7414C47.2943 118.249 45.3073 146.371 45.3073 146.371C44.739 154.684 51.0091 161.896 59.3045 162.466C67.5999 163.036 74.7973 156.752 75.3651 148.439C75.3651 148.439 76.8487 125.928 84.7701 107.926C86.5323 103.921 88.6073 100.141 91.2044 97.0943C93.5387 94.3579 96.2808 92.1757 99.9958 92.1757Z" fill="url(#paint10_radial_48_25)"/>
<path fill-rule="evenodd" clip-rule="evenodd" d="M99.9958 92.1757C103.714 92.1757 106.457 94.3579 108.794 97.0943C111.392 100.141 113.467 103.917 115.229 107.926C123.151 125.924 124.634 148.439 124.634 148.439C125.202 156.752 132.399 163.036 140.695 162.466C148.99 161.896 155.26 154.681 154.692 146.371C154.692 146.371 152.702 118.249 142.797 95.7414C134.302 76.4407 119.92 61.9819 99.9994 61.9819C80.0794 61.9819 65.6968 76.4407 57.203 95.7414C47.2943 118.249 45.3073 146.371 45.3073 146.371C44.739 154.684 51.0091 161.896 59.3045 162.466C67.5999 163.036 74.7973 156.752 75.3651 148.439C75.3651 148.439 76.8487 125.928 84.7701 107.926C86.5323 103.921 88.6073 100.141 91.2044 97.0943C93.5387 94.3579 96.2808 92.1757 99.9958 92.1757Z" fill="url(#paint11_radial_48_25)"/>
<path fill-rule="evenodd" clip-rule="evenodd" d="M99.9958 92.1757C103.714 92.1757 106.457 94.3579 108.794 97.0943C111.392 100.141 113.467 103.917 115.229 107.926C123.151 125.924 124.634 148.439 124.634 148.439C125.202 156.752 132.399 163.036 140.695 162.466C148.99 161.896 155.26 154.681 154.692 146.371C154.692 146.371 152.702 118.249 142.797 95.7414C134.302 76.4407 119.92 61.9819 99.9994 61.9819C80.0794 61.9819 65.6968 76.4407 57.203 95.7414C47.2943 118.249 45.3073 146.371 45.3073 146.371C44.739 154.684 51.0091 161.896 59.3045 162.466C67.5999 163.036 74.7973 156.752 75.3651 148.439C75.3651 148.439 76.8487 125.928 84.7701 107.926C86.5323 103.921 88.6073 100.141 91.2044 97.0943C93.5387 94.3579 96.2808 92.1757 99.9958 92.1757Z" fill="url(#paint12_radial_48_25)"/>
<path fill-rule="evenodd" clip-rule="evenodd" d="M99.9958 92.1757C103.714 92.1757 106.457 94.3579 108.794 97.0943C111.392 100.141 113.467 103.917 115.229 107.926C123.151 125.924 124.634 148.439 124.634 148.439C125.202 156.752 132.399 163.036 140.695 162.466C148.99 161.896 155.26 154.681 154.692 146.371C154.692 146.371 152.702 118.249 142.797 95.7414C134.302 76.4407 119.92 61.9819 99.9994 61.9819C80.0794 61.9819 65.6968 76.4407 57.203 95.7414C47.2943 118.249 45.3073 146.371 45.3073 146.371C44.739 154.684 51.0091 161.896 59.3045 162.466C67.5999 163.036 74.7973 156.752 75.3651 148.439C75.3651 148.439 76.8487 125.928 84.7701 107.926C86.5323 103.921 88.6073 100.141 91.2044 97.0943C93.5387 94.3579 96.2808 92.1757 99.9958 92.1757Z" fill="url(#paint13_radial_48_25)"/>
<path fill-rule="evenodd" clip-rule="evenodd" d="M74.6607 142.737L41.8951 41.6835C39.3282 33.7605 30.8231 29.415 22.9129 31.991C15.0065 34.567 10.67 43.09 13.2406 51.013L46.0065 152.066C48.5771 159.989 57.0823 164.335 64.9887 161.759C72.895 159.183 77.2314 150.66 74.6607 142.737Z" fill="url(#paint14_linear_48_25)"/>
<path fill-rule="evenodd" clip-rule="evenodd" d="M74.6607 142.737L41.8951 41.6835C39.3282 33.7605 30.8231 29.415 22.9129 31.991C15.0065 34.567 10.67 43.09 13.2406 51.013L46.0065 152.066C48.5771 159.989 57.0823 164.335 64.9887 161.759C72.895 159.183 77.2314 150.66 74.6607 142.737Z" fill="url(#paint15_radial_48_25)"/>
<path fill-rule="evenodd" clip-rule="evenodd" d="M74.6607 142.737L41.8951 41.6835C39.3282 33.7605 30.8231 29.415 22.9129 31.991C15.0065 34.567 10.67 43.09 13.2406 51.013L46.0065 152.066C48.5771 159.989 57.0823 164.335 64.9887 161.759C72.895 159.183 77.2314 150.66 74.6607 142.737Z" fill="url(#paint16_linear_48_25)"/>
<path fill-rule="evenodd" clip-rule="evenodd" d="M74.6607 142.737L41.8951 41.6835C39.3282 33.7605 30.8231 29.415 22.9129 31.991C15.0065 34.567 10.67 43.09 13.2406 51.013L46.0065 152.066C48.5771 159.989 57.0823 164.335 64.9887 161.759C72.895 159.183 77.2314 150.66 74.6607 142.737Z" fill="url(#paint17_radial_48_25)"/>
<path fill-rule="evenodd" clip-rule="evenodd" d="M74.6607 142.737L41.8951 41.6835C39.3282 33.7605 30.8231 29.415 22.9129 31.991C15.0065 34.567 10.67 43.09 13.2406 51.013L46.0065 152.066C48.5771 159.989 57.0823 164.335 64.9887 161.759C72.895 159.183 77.2314 150.66 74.6607 142.737Z" fill="url(#paint18_radial_48_25)"/>
<defs>
<linearGradient id="paint0_linear_48_25" x1="204.284" y1="-1.85386" x2="155.219" y2="156.802" gradientUnits="userSpaceOnUse">
<stop stop-color="#4A4EFA"/>
<stop offset="0.548576" stop-color="#E63CFE"/>
</linearGradient>
<linearGradient id="paint1_linear_48_25" x1="142.661" y1="89.6064" x2="170.456" y2="98.6035" gradientUnits="userSpaceOnUse">
<stop offset="0.160046" stop-color="#4A4EFA"/>
<stop offset="0.946031" stop-color="#4A4EFA" stop-opacity="0"/>
</linearGradient>
<linearGradient id="paint2_linear_48_25" x1="146.873" y1="76.2664" x2="164.337" y2="81.8521" gradientUnits="userSpaceOnUse">
<stop stop-color="#39FBBB"/>
<stop offset="1" stop-color="#39FBBB" stop-opacity="0"/>
</linearGradient>
<radialGradient id="paint3_radial_48_25" cx="0" cy="0" r="1" gradientUnits="userSpaceOnUse" gradientTransform="translate(140.419 113.219) rotate(-64.1652) scale(91.0671 91.0664)">
<stop offset="0.832168" stop-color="#4A4EFA" stop-opacity="0"/>
<stop offset="1" stop-color="#4A4EFA" stop-opacity="0.75"/>
</radialGradient>
<radialGradient id="paint4_radial_48_25" cx="0" cy="0" r="1" gradientUnits="userSpaceOnUse" gradientTransform="translate(138.654 107.209) scale(20.303 43.4208)">
<stop offset="0.169047" stop-color="#11417A"/>
<stop offset="0.926198" stop-color="#4069D4" stop-opacity="0"/>
</radialGradient>
<radialGradient id="paint5_radial_48_25" cx="0" cy="0" r="1" gradientUnits="userSpaceOnUse" gradientTransform="translate(162.154 162.501) rotate(-90) scale(67.155 32.1847)">
<stop offset="0.34895" stop-color="#E63CFE"/>
<stop offset="1" stop-color="#E63CFE" stop-opacity="0"/>
</radialGradient>
<radialGradient id="paint6_radial_48_25" cx="0" cy="0" r="1" gradientUnits="userSpaceOnUse" gradientTransform="translate(94.8937 114.984) rotate(-85.7675) scale(69.1894 61.4349)">
<stop stop-color="#39FBBB" stop-opacity="0.5"/>
<stop offset="0.688731" stop-color="#39FBBB"/>
<stop offset="1" stop-color="#39FBBB" stop-opacity="0"/>
</radialGradient>
<radialGradient id="paint7_radial_48_25" cx="0" cy="0" r="1" gradientUnits="userSpaceOnUse" gradientTransform="translate(193.472 153.939) rotate(-122.629) scale(165.872 40.3539)">
<stop stop-color="#E63CFE"/>
<stop offset="1" stop-color="#E63CFE" stop-opacity="0"/>
</radialGradient>
<radialGradient id="paint8_radial_48_25" cx="0" cy="0" r="1" gradientUnits="userSpaceOnUse" gradientTransform="translate(97.643 136.339) rotate(-85.0199) scale(74.6393 64.2045)">
<stop offset="0.556793" stop-color="#4A4EFA"/>
<stop offset="0.934777" stop-color="#4A4EFA" stop-opacity="0"/>
</radialGradient>
<radialGradient id="paint9_radial_48_25" cx="0" cy="0" r="1" gradientUnits="userSpaceOnUse" gradientTransform="translate(77.403 158.93) rotate(-68.6369) scale(77.9471 46.5166)">
<stop offset="0.61345" stop-color="#E63CFE"/>
<stop offset="1" stop-color="#E63CFE" stop-opacity="0"/>
</radialGradient>
<radialGradient id="paint10_radial_48_25" cx="0" cy="0" r="1" gradientUnits="userSpaceOnUse" gradientTransform="translate(152.822 106.143) rotate(176.233) scale(96.7807 244.664)">
<stop offset="0.813918" stop-color="#4A98D0" stop-opacity="0"/>
<stop offset="0.972647" stop-color="#11417A"/>
</radialGradient>
<radialGradient id="paint11_radial_48_25" cx="0" cy="0" r="1" gradientUnits="userSpaceOnUse" gradientTransform="translate(71.5908 162.501) rotate(-90) scale(69.3625 57.5513)">
<stop offset="0.457769" stop-color="#FFAE3C"/>
<stop offset="1" stop-color="#FFAE3C" stop-opacity="0"/>
</radialGradient>
<radialGradient id="paint12_radial_48_25" cx="0" cy="0" r="1" gradientUnits="userSpaceOnUse" gradientTransform="translate(155.699 162.501) rotate(-90) scale(62.5207 62.52)">
<stop offset="0.191715" stop-color="#E63CFE"/>
<stop offset="1" stop-color="#E63CFE" stop-opacity="0"/>
</radialGradient>
<radialGradient id="paint13_radial_48_25" cx="0" cy="0" r="1" gradientUnits="userSpaceOnUse" gradientTransform="translate(119.02 162.501) rotate(-90) scale(47.0466 22.3479)">
<stop offset="0.173611" stop-color="#FFAE3C"/>
<stop offset="1" stop-color="#FFAE3C" stop-opacity="0"/>
</radialGradient>
<linearGradient id="paint14_linear_48_25" x1="7.35186" y1="37.5557" x2="49.6571" y2="169.172" gradientUnits="userSpaceOnUse">
<stop offset="0.169527" stop-color="#E63CFE"/>
<stop offset="0.708644" stop-color="#FFAE3C"/>
</linearGradient>
<radialGradient id="paint15_radial_48_25" cx="0" cy="0" r="1" gradientUnits="userSpaceOnUse" gradientTransform="translate(41.9835 71.3647) rotate(161.042) scale(21.1069 103.067)">
<stop offset="0.120383" stop-color="#4A4EFA"/>
<stop offset="1" stop-color="#4A4EFA" stop-opacity="0"/>
</radialGradient>
<linearGradient id="paint16_linear_48_25" x1="60.5468" y1="99.0714" x2="54.6224" y2="101.011" gradientUnits="userSpaceOnUse">
<stop stop-color="#E63CFE" stop-opacity="0.33"/>
<stop offset="1" stop-color="#E63CFE" stop-opacity="0"/>
</linearGradient>
<radialGradient id="paint17_radial_48_25" cx="0" cy="0" r="1" gradientUnits="userSpaceOnUse" gradientTransform="translate(75.4014 162.501) rotate(-90) scale(67.8141 74.0814)">
<stop offset="0.465389" stop-color="#FFAE3C"/>
<stop offset="0.92565" stop-color="#FFAE3C" stop-opacity="0"/>
</radialGradient>
<radialGradient id="paint18_radial_48_25" cx="0" cy="0" r="1" gradientUnits="userSpaceOnUse" gradientTransform="translate(75.4014 162.501) rotate(-90) scale(148.38 148.379)">
<stop offset="0.843756" stop-color="#E63CFE" stop-opacity="0"/>
<stop offset="1" stop-color="#E63CFE"/>
</radialGradient>
</defs>
</svg>
