<svg width="100" height="100" viewBox="0 0 100 100" fill="none" xmlns="http://www.w3.org/2000/svg">
<g clip-path="url(#clip0_49_62)">
<path d="M29.0368 48.7963V48.8121L27.7258 54.5012C27.6551 54.8231 27.3331 55.0597 26.9624 55.0597H25.3782C25.3213 55.0599 25.2659 55.0783 25.2202 55.1124C25.1746 55.1464 25.141 55.1942 25.1246 55.2487C23.6636 60.2048 21.6856 63.6121 19.0734 65.6573C16.8514 67.3987 14.1124 68.2097 10.4526 68.2097C7.16483 68.2097 4.94775 67.1524 3.06727 65.0658C0.58312 62.3048 -0.44371 57.7902 0.178242 52.3487C1.29897 42.1329 6.59775 31.8243 16.8002 31.8243C19.9039 31.7963 22.3404 32.7536 24.0356 34.6658C25.8282 36.6865 26.738 39.7316 26.7429 43.7158C26.7384 43.8905 26.666 44.0566 26.5409 44.1786C26.4159 44.3007 26.2481 44.3692 26.0734 44.3695H18.5978C18.4668 44.3654 18.3423 44.3114 18.25 44.2183C18.1576 44.1253 18.1045 44.0005 18.1014 43.8695C18.0404 41.1146 17.2234 39.7719 15.599 39.7719C12.7331 39.7719 11.0429 43.6621 10.1465 45.8195C8.8941 48.8316 8.25629 52.1024 8.3819 55.3609C8.44166 56.878 8.68556 59.0121 10.1258 59.8951C11.4026 60.6792 13.2246 60.1597 14.3282 59.2914C15.4307 58.4243 16.3185 56.9231 16.6917 55.5536C16.7441 55.3634 16.7478 55.2158 16.6978 55.1487C16.6453 55.0816 16.5002 55.0658 16.3892 55.0658H14.4697C14.3681 55.0661 14.2677 55.0442 14.1754 55.0017C14.0831 54.9591 14.0013 54.8969 13.9356 54.8195C13.8851 54.759 13.8493 54.6877 13.8309 54.6111C13.8125 54.5346 13.812 54.4548 13.8295 54.378L15.1417 48.678C15.2063 48.3853 15.4709 48.1658 15.7965 48.1256V48.1121H28.3941C28.4234 48.1121 28.4539 48.1121 28.4819 48.1182C28.8087 48.1597 29.0392 48.4646 29.0331 48.7963H29.0368Z" fill="#0AE448"/>
<path d="M50.7247 42.2561C50.7193 42.4297 50.6465 42.5944 50.5217 42.7153C50.397 42.8361 50.2301 42.9037 50.0564 42.9036H43.171C42.7198 42.9036 42.343 42.5378 42.343 42.0926C42.343 40.0829 41.6478 39.1048 40.2259 39.1048C38.8039 39.1048 37.8869 39.9792 37.86 41.5048C37.8295 43.2061 38.7917 44.7512 41.5308 47.4073C45.1369 50.7902 46.582 53.7878 46.5125 57.7487C46.3991 64.1524 42.0442 68.2926 35.4173 68.2926C32.0332 68.2926 29.4478 67.3865 27.7283 65.6012C25.9832 63.789 25.1832 61.128 25.3503 57.6926C25.356 57.519 25.4291 57.3544 25.554 57.2338C25.679 57.1131 25.8461 57.0459 26.0198 57.0463H33.1417C33.241 57.048 33.3387 57.0718 33.4277 57.1159C33.5167 57.16 33.5948 57.2232 33.6564 57.3012C33.7102 57.3654 33.7496 57.4405 33.7719 57.5213C33.7942 57.6021 33.7989 57.6867 33.7856 57.7695C33.7064 59.0085 33.9222 59.9341 34.41 60.4463C34.7222 60.778 35.1576 60.9463 35.7003 60.9463C37.0161 60.9463 37.7869 60.0158 37.8161 58.3975C37.8405 56.9975 37.3978 55.7695 34.9856 53.2878C31.8698 50.2439 29.0759 47.0987 29.1625 42.1536C29.2137 39.2865 30.3527 36.6634 32.371 34.7683C34.5052 32.7658 37.4234 31.7073 40.8113 31.7073C44.2052 31.7317 46.7771 32.6987 48.4564 34.5841C50.0466 36.3719 50.8125 38.9524 50.7271 42.2548L50.7247 42.2561Z" fill="#0AE448"/>
<path d="M72.0684 67.0878L72.1135 33.0244C72.1148 32.9391 72.0991 32.8544 72.0672 32.7753C72.0353 32.6961 71.9879 32.6242 71.9278 32.5636C71.8677 32.5031 71.7961 32.4551 71.7172 32.4226C71.6383 32.3901 71.5537 32.3737 71.4684 32.3744H60.8123C60.4538 32.3744 60.2965 32.6817 60.194 32.8866L44.7647 66.8805V66.8866L44.7586 66.8939C44.5879 67.3122 44.9123 67.7598 45.3647 67.7598H52.8135C53.216 67.7598 53.4818 67.6378 53.6135 67.3842L55.0928 63.8293C55.2745 63.3561 55.3086 63.3122 55.8257 63.3122H62.9428C63.4379 63.3122 63.4489 63.322 63.4404 63.8061L63.2806 67.111C63.2795 67.1962 63.2953 67.2808 63.3273 67.3598C63.3593 67.4388 63.4067 67.5106 63.4668 67.571C63.5269 67.6314 63.5984 67.6792 63.6772 67.7117C63.756 67.7441 63.8405 67.7604 63.9257 67.7598H71.4501C71.5433 67.761 71.6356 67.7418 71.7205 67.7034C71.8054 67.6651 71.8809 67.6085 71.9416 67.5378C71.994 67.4764 72.0324 67.4044 72.0543 67.3267C72.0762 67.249 72.081 67.1675 72.0684 67.0878ZM58.8855 55.7147C58.816 55.7147 58.7611 55.7134 58.7172 55.7086C58.6911 55.7066 58.6658 55.6989 58.6431 55.686C58.6204 55.6731 58.6007 55.6554 58.5856 55.6341C58.5705 55.6128 58.5602 55.5885 58.5556 55.5628C58.5509 55.5371 58.552 55.5106 58.5586 55.4854C58.5733 55.4354 58.594 55.3695 58.6233 55.2866L63.9611 42.0829C64.0074 41.9525 64.066 41.8244 64.1269 41.7C64.2135 41.5232 64.3184 41.511 64.3513 41.6427C64.3794 41.7525 63.7391 55.2012 63.7391 55.2012C63.6891 55.7049 63.666 55.7256 63.1696 55.7671L58.8904 55.7171H58.8806L58.8855 55.7147Z" fill="#0AE448"/>
<path d="M87.2499 32.3743H81.5926C81.2938 32.3743 80.9584 32.5328 80.8792 32.8889L73.0072 67.0706C72.9898 67.1479 72.9905 67.2281 73.0091 67.3051C73.0277 67.3821 73.0638 67.4537 73.1145 67.5145C73.1801 67.5918 73.2618 67.6539 73.3538 67.6965C73.4459 67.739 73.5461 67.761 73.6475 67.7608H80.7182C81.0975 67.7608 81.3584 67.5743 81.4292 67.2511C81.4292 67.2511 82.2865 63.3877 82.2877 63.3755C82.3487 63.0743 82.2438 62.8401 81.9731 62.6987C81.845 62.6328 81.7182 62.5669 81.5926 62.4999L80.367 61.8633L79.1475 61.2267L78.6755 60.9816C78.6373 60.9623 78.6054 60.9326 78.5834 60.8959C78.5614 60.8592 78.5502 60.817 78.5511 60.7743C78.5527 60.7112 78.5788 60.6512 78.6239 60.607C78.669 60.5628 78.7295 60.538 78.7926 60.5377L82.6682 60.5547C83.8267 60.5608 84.9865 60.4791 86.1267 60.2694C94.1511 58.7877 99.4804 52.3608 99.634 43.6157C99.7645 36.1523 95.5987 32.3706 87.256 32.3706L87.2499 32.3743ZM85.3243 52.7157H85.1731C84.834 52.7157 84.7731 52.6791 84.7621 52.6669C84.7572 52.6584 86.9975 42.8218 86.9987 42.8084C87.056 42.5243 87.0536 42.3608 86.8779 42.2645C86.6536 42.1401 83.3828 40.4157 83.3828 40.4157C83.3447 40.3958 83.3129 40.3656 83.2911 40.3285C83.2693 40.2914 83.2584 40.249 83.2597 40.206C83.2612 40.1433 83.2873 40.0838 83.3321 40.04C83.377 39.9963 83.4372 39.9718 83.4999 39.9718H88.6718C90.2816 40.0206 91.1792 41.4608 91.1365 43.9194C91.0621 48.1779 89.0377 52.5657 85.3243 52.7169V52.7157Z" fill="#0AE448"/>
</g>
<defs>
<clipPath id="clip0_49_62">
<rect width="100" height="36.5854" fill="white" transform="translate(0 31.7073)"/>
</clipPath>
</defs>
</svg>
